# xmcd CD database file
# Copyright (C) 1993-1998 Ti Kan
# 
# Track frame offsets:
#     150
#     16478
#     35288
#     63675
#     79395
#     96050
#     110875
#     121900
#     138068
#     152833
#     169838
#     187785
#     211318
# 
# Disc length: 3109 seconds
# 
# Revision: 1
# Processed by: cddbd v1.4b41PL1 Copyright (c) Steve Scherf et al.
# Submitted via: DiscPlay 4.0.0
# 
DISCID=ac0c230d
DTITLE=Bryan Adams - 18 Till I Die
DYEAR=1900
DGENRE=
TTITLE0=The Only Thing That Looks Good On Me Is You
TTITLE1=Do To You
TTITLE2=Let's Make a Night To Remember
TTITLE3=18 Till I Die
TTITLE4=Star
TTITLE5=(I Wanna Be) Your Underwear
TTITLE6=We're Gonna Win
TTITLE7=I Think About You
TTITLE8=I'll Always Be Right There
TTITLE9=It Ain' a Party...If You Can't Come Around
TTITLE10=Black Pearl
TTITLE11=You're Still Beautifull To Me
TTITLE12=Have You Ever Really Loved a Woman?
EXTD=
EXTT0=
EXTT1=
EXTT2=
EXTT3=
EXTT4=
EXTT5=
EXTT6=
EXTT7=
EXTT8=
EXTT9=
EXTT10=
EXTT11=
EXTT12=
PLAYORDER=
